P3 
3 2 255 
186 55 33 
12 123 123 
125 244 223 
220 42 120
253 129 22
33 12 3