P2
2 2 
255
85
170
0
255
